# xmcd
#
# Track frame offsets:
#	150
#	68550
#	132450
#	179250
#	224700
#	259950
#	303150
#	346350
#
# Disc length: 4646 seconds
#
# Revision: 0
# Processed by: cddbd v1.5.2PL0 Copyright (c) Steve Scherf et al.
# Submitted via: audiograbber 1.83.01
#
DISCID=7c122408
DTITLE=Thomas Mac Pfeifer - Was macht ein Pinguin am Nordpol CD 3
DYEAR=2005
DGENRE=Kind
TTITLE0=Dingo verliebt sich in ein Waschbärmädchen
TTITLE1=Wenn ein Buschbaby Arien singt
TTITLE2=Oh Schreck, oh Schreck, Gepäck ist weg
TTITLE3=Bauchweh nach 58 Eukalyptusblättern
TTITLE4=Was macht ein Pinguin in Iglu-Town?
TTITLE5=Ein Schneehäschen in Pingu-City
TTITLE6=Wenn aus dem Sonntag ein Samstag wird
TTITLE7=Ri Ru Raun
EXTD=
EXTT0=
EXTT1=
EXTT2=
EXTT3=
EXTT4=
EXTT5=
EXTT6=
EXTT7=
PLAYORDER=
